# xmcd
# 
# Track frame offsets:
#     150
#     6570
#     25370
#     46323
#     66102
#     87850
#     106426
#     122777
#     141868
#     156532
#     177793
# 
# Disc length: 2595
# 
# Revision: 0
# Processed by: cddbd v1.5.2PL0 Copyright (c) Steve Scherf et al.
# Submitted via: fre:ac v1.1beta1pre5
# 
DISCID=980a210b
DTITLE=Vision Divine - Send Me An Angel
DYEAR=2001
DGENRE=
TTITLE0=Incipit
TTITLE1=Send Me An Angel
TTITLE2=Pain
TTITLE3=Away from You
TTITLE4=Black and White
TTITLE5=The Call
TTITLE6=Taste of a Goodbye
TTITLE7=Apocalypse Coming
TTITLE8=Nemesis
TTITLE9=Flame of Hate
TTITLE10=Take on Me
EXTD=
EXTT0=
EXTT1=
EXTT2=
EXTT3=
EXTT4=
EXTT5=
EXTT6=
EXTT7=
EXTT8=
EXTT9=
EXTT10=
PLAYORDER=
